<?xml version="1.0" encoding="utf-8"?>
<!-- Generator: Adobe Illustrator 21.1.0, SVG Export Plug-In . SVG Version: 6.00 Build 0)  -->
<svg version="1.1" id="Layer_1" xmlns="http://www.w3.org/2000/svg" xmlns:xlink="http://www.w3.org/1999/xlink" x="0px" y="0px"
	 viewBox="0 0 551 109" style="enable-background:new 0 0 551 109;" xml:space="preserve">
<style type="text/css">
	.st0{fill:#027096;}
	.st1{opacity:0.7;fill:#010101;}
	.st2{fill:#4394D1;}
	.st3{fill:#F48226;}
	.st4{fill:#231F20;stroke:#231F20;stroke-width:0.712;}
	.st5{opacity:0.7;}
	.st6{fill:#231F20;}
	.st7{opacity:0.7;fill:none;stroke:#000000;stroke-width:1.1783;}
</style>
<g>
	<polygon class="st0" points="88.3,30.3 75.7,37.6 63.1,30.3 63.1,15.8 75.7,8.5 88.3,15.8 	"/>
	<polygon class="st1" points="117.7,30.3 105,37.6 92.4,30.3 92.4,15.8 105,8.5 117.7,15.8 	"/>
	<polygon class="st2" points="29.6,30.3 17,37.6 4.4,30.3 4.4,15.8 17,8.5 29.6,15.8 	"/>
	<polygon class="st3" points="59,30.3 46.4,37.6 33.8,30.3 33.8,15.8 46.4,8.5 59,15.8 	"/>
	<path class="st4" d="M17.4,70.4c-4.4,0-6.7,2.2-6.7,6.7h-5c0-7.8,3.9-11.7,11.7-11.7h11.7c7.8,0,11.7,3.9,11.7,11.7v11.7
		c0,7.8-3.9,11.7-11.7,11.7H17.4c-7.8,0-11.7-3.3-11.7-10c0-4.8,1.7-7.6,5.1-8.3l24.9-5.7c-0.2-4-2.4-6-6.6-6H17.4z M29.1,95.4
		c4.5,0,6.7-2.2,6.7-6.7v-7.2L12.1,87c-0.9,0.3-1.4,0.9-1.4,1.7c0,4.5,2.2,6.7,6.7,6.7H29.1z"/>
	<path class="st4" d="M75.9,95.4c4.5,0,6.7-2.2,6.7-6.7h5c0,7.8-3.9,11.7-11.7,11.7H64.3c-7.8,0-11.7-3.9-11.7-11.7V77
		c0-7.8,3.9-11.7,11.7-11.7h11.7c7.8,0,11.7,3.9,11.7,11.7h-5c0-4.5-2.2-6.7-6.7-6.7H64.3c-4.5,0-6.7,2.2-6.7,6.7v11.7
		c0,4.5,2.2,6.7,6.7,6.7H75.9z"/>
	<path class="st4" d="M109.5,88.7c0,4.5,2.2,6.7,6.7,6.7h3.3v5h-3.3c-7.8,0-11.7-3.9-11.7-11.7V70.4h-5v-5h5V57h5v8.3h8.3v5h-8.3
		V88.7z"/>
	<rect x="131.3" y="65.3" class="st4" width="5" height="35"/>
	<path class="st4" d="M164.9,94.2l12-28.9h5.4l-14.7,35h-5.6l-14.7-35h5.5L164.9,94.2z"/>
	<path class="st4" d="M193.4,77c0-7.8,3.9-11.7,11.7-11.7h11.7c7.8,0,11.7,3.9,11.7,11.7v11.7c0,7.8-3.9,11.7-11.7,11.7h-11.7
		c-7.8,0-11.7-3.9-11.7-11.7V77z M205.1,70.4c-4.5,0-6.7,2.2-6.7,6.7v11.7c0,4.5,2.2,6.7,6.7,6.7h11.7c4.5,0,6.7-2.2,6.7-6.7V77
		c0-4.5-2.2-6.7-6.7-6.7H205.1z"/>
	<path class="st4" d="M277.1,70.4h-13.4v30h-5v-35h18.4c11.1,0,16.7,5.6,16.7,16.7v18.4h-5V82C288.8,74.2,284.9,70.4,277.1,70.4z"/>
	<path class="st4" d="M305.7,100.4V50.3h5v50.1H305.7z"/>
	<polygon class="st3" points="137.8,58.2 133.8,60.5 129.9,58.2 129.9,53.7 133.8,51.4 137.8,53.7 	"/>
	<g>
		<path class="st4" d="M243.5,100.4c-2.2,0-3.3-1.1-3.3-3.3c0-2.2,1.1-3.3,3.3-3.3c2.2,0,3.3,1.1,3.3,3.3
			C246.8,99.3,245.7,100.4,243.5,100.4z"/>
	</g>
</g>
<g class="st5">
	<path class="st6" d="M382.4,28v2.3h-14V9.7h13.8V12H371v6.7h9.7v2.2H371V28H382.4z"/>
	<path class="st6" d="M389.6,30.4l-6-15.2h2.6l4.8,13l4.8-13h2.4l-6,15.2H389.6z"/>
	<path class="st6" d="M407.5,30.7c-1.1,0-2.2-0.2-3.1-0.6c-1-0.4-1.8-1-2.4-1.7c-0.7-0.7-1.2-1.6-1.6-2.5c-0.4-1-0.6-2-0.6-3
		c0-1.1,0.2-2.1,0.6-3c0.4-1,0.9-1.8,1.6-2.5c0.7-0.7,1.5-1.3,2.5-1.7c1-0.4,2-0.6,3.1-0.6c1.1,0,2.2,0.2,3.1,0.6
		c0.9,0.4,1.7,1,2.4,1.7c0.7,0.7,1.2,1.5,1.5,2.5c0.4,0.9,0.5,1.9,0.5,2.9c0,0.2,0,0.4,0,0.6c0,0.2,0,0.3,0,0.4h-12.6
		c0.1,0.8,0.2,1.4,0.5,2.1c0.3,0.6,0.7,1.2,1.1,1.6c0.5,0.4,1,0.8,1.6,1c0.6,0.3,1.2,0.4,1.9,0.4c0.5,0,0.9-0.1,1.4-0.2
		s0.9-0.3,1.3-0.5c0.4-0.2,0.7-0.5,1-0.8c0.3-0.3,0.5-0.7,0.7-1l2.2,0.6c-0.3,0.6-0.6,1.1-1,1.5c-0.4,0.5-0.9,0.9-1.5,1.2
		c-0.6,0.3-1.2,0.6-1.9,0.8C409,30.6,408.3,30.7,407.5,30.7z M412.7,21.7c-0.1-0.7-0.2-1.4-0.5-2c-0.3-0.6-0.7-1.1-1.1-1.6
		s-1-0.8-1.6-1c-0.6-0.2-1.2-0.4-1.9-0.4c-0.7,0-1.3,0.1-1.9,0.4c-0.6,0.2-1.1,0.6-1.6,1c-0.5,0.4-0.8,1-1.1,1.6
		c-0.3,0.6-0.5,1.3-0.5,2H412.7z"/>
	<path class="st6" d="M431.1,30.4h-2.6v-8.5c0-1.6-0.2-2.8-0.7-3.6c-0.5-0.7-1.2-1.1-2.3-1.1c-0.5,0-1,0.1-1.6,0.3s-1,0.5-1.5,0.8
		c-0.5,0.3-0.9,0.8-1.2,1.3c-0.3,0.5-0.6,1-0.8,1.6v9.2h-2.6V15.2h2.3v3.3c0.6-1.1,1.5-1.9,2.6-2.6s2.4-1,3.7-1
		c0.9,0,1.6,0.2,2.2,0.5s1,0.8,1.4,1.3c0.3,0.6,0.6,1.2,0.7,2c0.1,0.8,0.2,1.6,0.2,2.5V30.4z"/>
	<path class="st6" d="M442.8,29.6c-0.2,0.1-0.4,0.2-0.6,0.3c-0.3,0.1-0.5,0.2-0.9,0.3s-0.7,0.2-1,0.3s-0.8,0.1-1.2,0.1
		c-0.9,0-1.7-0.3-2.4-0.8c-0.7-0.5-1-1.3-1-2.4V17.2h-2.1v-2h2.1v-5.1h2.6v5.1h3.4v2h-3.4v9.4c0,0.6,0.2,1,0.6,1.2
		c0.3,0.3,0.7,0.4,1.2,0.4c0.5,0,1-0.1,1.4-0.2s0.7-0.3,0.9-0.4L442.8,29.6z"/>
	<path class="st6" d="M386.3,65.3v-16l-6.9,12.3h-1.5L371,49.3v16h-2.6V44.6h2.8l7.5,13.4l7.5-13.4h2.7v20.7H386.3z"/>
	<path class="st6" d="M397.5,65.6c-0.8,0-1.5-0.1-2.1-0.4c-0.6-0.2-1.2-0.6-1.7-1c-0.5-0.4-0.8-0.9-1.1-1.5
		c-0.3-0.6-0.4-1.2-0.4-1.8c0-0.7,0.2-1.4,0.5-2c0.3-0.6,0.8-1.1,1.3-1.5c0.6-0.4,1.3-0.7,2-1c0.8-0.2,1.6-0.3,2.6-0.3
		c0.7,0,1.5,0.1,2.2,0.2c0.8,0.1,1.4,0.3,2,0.6v-1.2c0-1.2-0.3-2.2-1-2.9c-0.7-0.7-1.7-1.1-3-1.1c-1.5,0-3.1,0.6-4.8,1.8l-0.8-1.7
		c1-0.7,2-1.2,2.9-1.5c1-0.3,2-0.5,3-0.5c1.9,0,3.5,0.5,4.6,1.6c1.1,1.1,1.7,2.6,1.7,4.5v6.2c0,0.6,0.3,0.9,0.8,0.9v2.2
		c-0.2,0-0.4,0.1-0.6,0.1c-0.2,0-0.3,0-0.5,0c-0.4,0-0.8-0.1-1.3-0.3c-0.4-0.2-0.6-0.6-0.7-1.2l-0.1-1.1c-0.3,0.5-0.7,0.9-1.2,1.2
		c-0.4,0.3-0.9,0.6-1.4,0.9c-0.5,0.2-1,0.4-1.6,0.5C398.5,65.5,398,65.6,397.5,65.6z M398.1,63.7c0.8,0,1.6-0.2,2.4-0.5
		c0.8-0.3,1.4-0.8,1.8-1.3c0.4-0.4,0.6-0.8,0.6-1.2v-2.2c-0.6-0.2-1.2-0.4-1.9-0.5c-0.7-0.1-1.3-0.2-1.9-0.2c-1.3,0-2.4,0.3-3.2,0.8
		c-0.8,0.5-1.2,1.3-1.2,2.2c0,0.4,0.1,0.8,0.2,1.1c0.2,0.4,0.4,0.7,0.7,0.9c0.3,0.3,0.7,0.5,1.1,0.7
		C397.1,63.6,397.6,63.7,398.1,63.7z"/>
	<path class="st6" d="M422.8,65.3h-2.6v-8.5c0-1.6-0.2-2.8-0.7-3.6c-0.5-0.7-1.2-1.1-2.3-1.1c-0.5,0-1,0.1-1.6,0.3s-1,0.5-1.5,0.8
		c-0.5,0.3-0.9,0.8-1.2,1.3s-0.6,1-0.8,1.6v9.2h-2.6V50.1h2.3v3.3c0.6-1.1,1.5-1.9,2.6-2.6c1.1-0.6,2.4-1,3.7-1
		c0.9,0,1.6,0.2,2.2,0.5s1,0.8,1.4,1.3c0.3,0.6,0.6,1.2,0.7,2c0.1,0.8,0.2,1.6,0.2,2.5V65.3z"/>
	<path class="st6" d="M430.8,65.6c-0.8,0-1.5-0.1-2.1-0.4c-0.6-0.2-1.2-0.6-1.7-1c-0.5-0.4-0.8-0.9-1.1-1.5
		c-0.3-0.6-0.4-1.2-0.4-1.8c0-0.7,0.2-1.4,0.5-2c0.3-0.6,0.8-1.1,1.3-1.5c0.6-0.4,1.3-0.7,2-1c0.8-0.2,1.6-0.3,2.6-0.3
		c0.7,0,1.5,0.1,2.2,0.2c0.8,0.1,1.4,0.3,2,0.6v-1.2c0-1.2-0.3-2.2-1-2.9c-0.7-0.7-1.7-1.1-3-1.1c-1.5,0-3.1,0.6-4.8,1.8l-0.8-1.7
		c1-0.7,2-1.2,2.9-1.5c1-0.3,2-0.5,3-0.5c1.9,0,3.5,0.5,4.6,1.6c1.1,1.1,1.7,2.6,1.7,4.5v6.2c0,0.6,0.3,0.9,0.8,0.9v2.2
		c-0.2,0-0.4,0.1-0.6,0.1c-0.2,0-0.3,0-0.5,0c-0.4,0-0.8-0.1-1.3-0.3c-0.4-0.2-0.6-0.6-0.7-1.2l-0.1-1.1c-0.3,0.5-0.7,0.9-1.2,1.2
		c-0.4,0.3-0.9,0.6-1.4,0.9c-0.5,0.2-1,0.4-1.6,0.5C431.8,65.5,431.3,65.6,430.8,65.6z M431.4,63.7c0.8,0,1.6-0.2,2.4-0.5
		c0.8-0.3,1.4-0.8,1.8-1.3c0.4-0.4,0.6-0.8,0.6-1.2v-2.2c-0.6-0.2-1.2-0.4-1.9-0.5c-0.7-0.1-1.3-0.2-1.9-0.2c-1.3,0-2.4,0.3-3.2,0.8
		c-0.8,0.5-1.2,1.3-1.2,2.2c0,0.4,0.1,0.8,0.2,1.1c0.2,0.4,0.4,0.7,0.7,0.9c0.3,0.3,0.7,0.5,1.1,0.7
		C430.4,63.6,430.9,63.7,431.4,63.7z"/>
	<path class="st6" d="M449,65.5c-1,0-2-0.2-2.8-0.6c-0.9-0.4-1.6-1-2.2-1.7c-0.6-0.7-1.1-1.5-1.4-2.5s-0.5-1.9-0.5-2.9
		c0-1.1,0.2-2.1,0.5-3c0.3-1,0.8-1.8,1.4-2.5c0.6-0.7,1.4-1.3,2.2-1.7c0.9-0.4,1.8-0.6,2.9-0.6c1.3,0,2.4,0.3,3.3,0.9
		c0.9,0.6,1.7,1.4,2.4,2.4v-3h2.3v15c0,1.1-0.2,2-0.6,2.9s-1,1.5-1.7,2.1c-0.7,0.6-1.5,1-2.5,1.3c-0.9,0.3-1.9,0.4-3,0.4
		c-1.7,0-3.1-0.3-4.2-0.9s-2-1.4-2.7-2.5l1.5-1.3c0.6,0.9,1.4,1.6,2.3,2c1,0.4,2,0.7,3.1,0.7c0.7,0,1.4-0.1,2-0.3
		c0.6-0.2,1.2-0.5,1.6-0.9c0.5-0.4,0.8-0.9,1.1-1.5c0.3-0.6,0.4-1.3,0.4-2.1v-2.7c-0.3,0.5-0.6,0.9-1,1.3c-0.4,0.4-0.8,0.7-1.3,1
		c-0.5,0.3-1,0.5-1.5,0.6C450,65.4,449.5,65.5,449,65.5z M449.7,63.4c0.5,0,1.1-0.1,1.6-0.3c0.5-0.2,1-0.5,1.4-0.8
		c0.4-0.3,0.8-0.7,1.1-1.1c0.3-0.4,0.5-0.8,0.6-1.3v-4.4c-0.2-0.5-0.5-1-0.8-1.4c-0.3-0.4-0.7-0.8-1.1-1.1c-0.4-0.3-0.9-0.6-1.4-0.7
		c-0.5-0.2-1-0.3-1.5-0.3c-0.8,0-1.5,0.2-2.1,0.5c-0.6,0.3-1.1,0.8-1.6,1.3c-0.4,0.5-0.8,1.2-1,1.8c-0.2,0.7-0.3,1.4-0.3,2.1
		c0,0.8,0.1,1.5,0.4,2.2c0.3,0.7,0.6,1.3,1.1,1.8c0.5,0.5,1,0.9,1.6,1.2C448.3,63.2,449,63.4,449.7,63.4z"/>
	<path class="st6" d="M467.7,65.6c-1.1,0-2.2-0.2-3.1-0.6c-1-0.4-1.8-1-2.4-1.7c-0.7-0.7-1.2-1.6-1.6-2.5c-0.4-1-0.6-2-0.6-3
		s0.2-2.1,0.6-3s0.9-1.8,1.6-2.5c0.7-0.7,1.5-1.3,2.5-1.7c1-0.4,2-0.6,3.1-0.6c1.1,0,2.2,0.2,3.1,0.6c0.9,0.4,1.7,1,2.4,1.7
		c0.7,0.7,1.2,1.5,1.5,2.5c0.4,0.9,0.5,1.9,0.5,2.9c0,0.2,0,0.4,0,0.6c0,0.2,0,0.3,0,0.4h-12.6c0.1,0.8,0.2,1.4,0.5,2.1
		c0.3,0.6,0.7,1.2,1.1,1.6c0.5,0.4,1,0.8,1.6,1c0.6,0.3,1.2,0.4,1.9,0.4c0.5,0,0.9-0.1,1.4-0.2s0.9-0.3,1.3-0.5
		c0.4-0.2,0.7-0.5,1-0.8c0.3-0.3,0.5-0.7,0.7-1l2.2,0.6c-0.3,0.6-0.6,1.1-1,1.5c-0.4,0.5-0.9,0.9-1.5,1.2c-0.6,0.3-1.2,0.6-1.9,0.8
		C469.2,65.5,468.5,65.6,467.7,65.6z M472.9,56.7c-0.1-0.7-0.2-1.4-0.5-2c-0.3-0.6-0.7-1.1-1.1-1.6c-0.5-0.4-1-0.8-1.6-1
		c-0.6-0.2-1.2-0.4-1.9-0.4c-0.7,0-1.3,0.1-1.9,0.4c-0.6,0.2-1.1,0.6-1.6,1c-0.5,0.4-0.8,1-1.1,1.6c-0.3,0.6-0.5,1.3-0.5,2H472.9z"
		/>
	<path class="st6" d="M501.1,65.3h-2.6v-8.5c0-1.6-0.3-2.8-0.8-3.5c-0.5-0.8-1.3-1.1-2.3-1.1c-1,0-2,0.4-2.8,1.1
		c-0.8,0.7-1.4,1.7-1.8,2.9v9.1h-2.6v-8.5c0-1.6-0.3-2.8-0.8-3.6c-0.5-0.7-1.3-1.1-2.3-1.1c-1,0-2,0.4-2.8,1.1
		c-0.8,0.7-1.4,1.7-1.8,2.9v9.2h-2.6V50.1h2.3v3.3c0.6-1.1,1.4-2,2.4-2.6c1-0.6,2.1-0.9,3.3-0.9c1.3,0,2.3,0.3,3,1
		c0.7,0.7,1.2,1.6,1.4,2.7c1.4-2.5,3.3-3.7,5.8-3.7c0.9,0,1.6,0.2,2.2,0.5c0.6,0.3,1.1,0.8,1.4,1.3c0.3,0.6,0.6,1.2,0.8,2
		c0.2,0.8,0.2,1.6,0.2,2.5V65.3z"/>
	<path class="st6" d="M511.7,65.6c-1.1,0-2.2-0.2-3.1-0.6c-1-0.4-1.8-1-2.4-1.7c-0.7-0.7-1.2-1.6-1.6-2.5c-0.4-1-0.6-2-0.6-3
		s0.2-2.1,0.6-3c0.4-1,0.9-1.8,1.6-2.5c0.7-0.7,1.5-1.3,2.5-1.7c1-0.4,2-0.6,3.1-0.6c1.1,0,2.2,0.2,3.1,0.6c0.9,0.4,1.7,1,2.4,1.7
		c0.7,0.7,1.2,1.5,1.5,2.5c0.4,0.9,0.5,1.9,0.5,2.9c0,0.2,0,0.4,0,0.6c0,0.2,0,0.3,0,0.4h-12.6c0.1,0.8,0.2,1.4,0.5,2.1
		c0.3,0.6,0.7,1.2,1.1,1.6c0.5,0.4,1,0.8,1.6,1c0.6,0.3,1.2,0.4,1.9,0.4c0.5,0,0.9-0.1,1.4-0.2s0.9-0.3,1.3-0.5
		c0.4-0.2,0.7-0.5,1-0.8c0.3-0.3,0.5-0.7,0.7-1l2.2,0.6c-0.3,0.6-0.6,1.1-1,1.5c-0.4,0.5-0.9,0.9-1.5,1.2c-0.6,0.3-1.2,0.6-1.9,0.8
		C513.2,65.5,512.5,65.6,511.7,65.6z M516.9,56.7c-0.1-0.7-0.2-1.4-0.5-2c-0.3-0.6-0.7-1.1-1.1-1.6c-0.5-0.4-1-0.8-1.6-1
		c-0.6-0.2-1.2-0.4-1.9-0.4c-0.7,0-1.3,0.1-1.9,0.4c-0.6,0.2-1.1,0.6-1.6,1s-0.8,1-1.1,1.6c-0.3,0.6-0.5,1.3-0.5,2H516.9z"/>
	<path class="st6" d="M535.3,65.3h-2.6v-8.5c0-1.6-0.2-2.8-0.7-3.6c-0.5-0.7-1.2-1.1-2.3-1.1c-0.5,0-1,0.1-1.6,0.3s-1,0.5-1.5,0.8
		c-0.5,0.3-0.9,0.8-1.2,1.3c-0.3,0.5-0.6,1-0.8,1.6v9.2h-2.6V50.1h2.3v3.3c0.6-1.1,1.5-1.9,2.6-2.6c1.1-0.6,2.4-1,3.7-1
		c0.9,0,1.6,0.2,2.2,0.5c0.6,0.3,1,0.8,1.4,1.3c0.3,0.6,0.6,1.2,0.7,2c0.1,0.8,0.2,1.6,0.2,2.5V65.3z"/>
	<path class="st6" d="M547,64.5c-0.2,0.1-0.4,0.2-0.6,0.3c-0.3,0.1-0.5,0.2-0.9,0.3s-0.7,0.2-1,0.3c-0.4,0.1-0.8,0.1-1.2,0.1
		c-0.9,0-1.7-0.3-2.4-0.8c-0.7-0.5-1-1.3-1-2.4V52.1h-2.1v-2h2.1V45h2.6v5.1h3.4v2h-3.4v9.4c0,0.6,0.2,1,0.6,1.2
		c0.3,0.3,0.7,0.4,1.2,0.4c0.5,0,1-0.1,1.4-0.2c0.4-0.2,0.7-0.3,0.9-0.4L547,64.5z"/>
	<path class="st6" d="M380.6,83.9c-0.2-0.3-0.5-0.5-0.9-0.8c-0.4-0.3-0.8-0.5-1.3-0.7c-0.5-0.2-1-0.4-1.6-0.5
		c-0.6-0.1-1.2-0.2-1.8-0.2c-1.6,0-2.8,0.3-3.5,0.9c-0.7,0.6-1.1,1.4-1.1,2.5c0,0.6,0.1,1,0.3,1.4c0.2,0.4,0.5,0.7,1,0.9
		c0.5,0.3,1,0.5,1.7,0.7c0.7,0.2,1.5,0.4,2.4,0.6c1.1,0.2,2,0.5,2.9,0.8c0.9,0.3,1.6,0.7,2.2,1.1c0.6,0.4,1.1,1,1.4,1.6
		c0.3,0.6,0.5,1.4,0.5,2.4c0,1-0.2,1.8-0.6,2.6c-0.4,0.7-0.9,1.3-1.6,1.8c-0.7,0.5-1.5,0.8-2.4,1c-0.9,0.2-1.9,0.3-3,0.3
		c-1.6,0-3.1-0.2-4.5-0.7c-1.4-0.5-2.7-1.2-3.9-2.2l1.3-2.2c0.3,0.3,0.7,0.7,1.2,1c0.5,0.3,1.1,0.6,1.7,0.9c0.6,0.3,1.3,0.5,2,0.6
		c0.7,0.2,1.5,0.2,2.3,0.2c1.5,0,2.6-0.3,3.4-0.8c0.8-0.5,1.2-1.3,1.2-2.4c0-0.6-0.1-1.1-0.4-1.5c-0.3-0.4-0.6-0.7-1.2-1
		c-0.5-0.3-1.1-0.5-1.9-0.8c-0.7-0.2-1.6-0.5-2.5-0.7c-1-0.3-2-0.5-2.8-0.8c-0.8-0.3-1.5-0.6-2-1c-0.5-0.4-0.9-0.9-1.2-1.5
		c-0.3-0.6-0.4-1.3-0.4-2.1c0-1,0.2-1.9,0.6-2.6c0.4-0.8,0.9-1.4,1.5-1.9c0.7-0.5,1.4-0.9,2.4-1.2c0.9-0.3,1.9-0.4,3-0.4
		c1.4,0,2.7,0.2,3.8,0.6c1.1,0.4,2.1,1,3,1.7L380.6,83.9z"/>
	<path class="st6" d="M392.5,100.5c-1.1,0-2.2-0.2-3.1-0.6c-0.9-0.4-1.7-1-2.4-1.7c-0.7-0.7-1.2-1.6-1.6-2.5c-0.4-1-0.6-2-0.6-3
		c0-1.1,0.2-2.1,0.6-3c0.4-1,0.9-1.8,1.6-2.5c0.7-0.7,1.5-1.3,2.4-1.7c0.9-0.4,2-0.6,3.1-0.6s2.2,0.2,3.1,0.6c1,0.4,1.8,1,2.4,1.7
		c0.7,0.7,1.2,1.6,1.6,2.5c0.4,1,0.6,2,0.6,3c0,1-0.2,2-0.6,3c-0.4,1-0.9,1.8-1.6,2.5c-0.7,0.7-1.5,1.3-2.4,1.7
		C394.7,100.3,393.6,100.5,392.5,100.5z M387.4,92.7c0,0.8,0.1,1.5,0.4,2.2c0.3,0.7,0.6,1.3,1.1,1.8c0.5,0.5,1,0.9,1.6,1.2
		c0.6,0.3,1.3,0.4,2,0.4c0.7,0,1.4-0.1,2-0.4c0.6-0.3,1.1-0.7,1.6-1.2c0.5-0.5,0.8-1.1,1.1-1.8s0.4-1.4,0.4-2.2
		c0-0.8-0.1-1.5-0.4-2.2s-0.6-1.3-1.1-1.8c-0.5-0.5-1-0.9-1.6-1.2c-0.6-0.3-1.3-0.4-2-0.4c-0.7,0-1.4,0.2-2,0.5
		c-0.6,0.3-1.1,0.7-1.6,1.2c-0.5,0.5-0.8,1.1-1.1,1.8C387.6,91.2,387.4,91.9,387.4,92.7z"/>
	<path class="st6" d="M403.2,79h2.6v17.3c0,0.6,0.1,1,0.5,1.3c0.3,0.3,0.7,0.5,1.3,0.5c0.2,0,0.5,0,0.8-0.1c0.3-0.1,0.6-0.2,0.8-0.2
		l0.4,2.1c-0.4,0.2-0.9,0.3-1.5,0.4c-0.6,0.1-1.1,0.2-1.5,0.2c-1,0-1.8-0.3-2.3-0.8c-0.6-0.6-0.9-1.3-0.9-2.4V79z"/>
	<path class="st6" d="M416,100.5c-1.6,0-2.8-0.5-3.6-1.6c-0.8-1.1-1.2-2.7-1.2-4.8V85h2.6v8.6c0,3.1,1.1,4.7,3.2,4.7c1,0,2-0.3,3-1
		c0.9-0.7,1.6-1.6,2.1-2.8V85h2.6v12.1c0,0.6,0.3,0.9,0.8,0.9v2.2c-0.2,0-0.4,0.1-0.6,0.1c-0.2,0-0.3,0-0.5,0c-0.6,0-1-0.1-1.4-0.4
		c-0.3-0.3-0.5-0.7-0.6-1.1l-0.1-1.8c-0.7,1.1-1.6,2-2.7,2.6C418.6,100.2,417.3,100.5,416,100.5z"/>
	<path class="st6" d="M436.7,99.5c-0.2,0.1-0.4,0.2-0.6,0.3c-0.3,0.1-0.5,0.2-0.9,0.3s-0.7,0.2-1,0.3c-0.4,0.1-0.8,0.1-1.2,0.1
		c-0.9,0-1.7-0.3-2.4-0.8c-0.7-0.5-1-1.3-1-2.4V87h-2.1v-2h2.1V80h2.6V85h3.4v2h-3.4v9.4c0,0.6,0.2,1,0.6,1.2
		c0.3,0.3,0.7,0.4,1.2,0.4c0.5,0,1-0.1,1.4-0.2s0.7-0.3,0.9-0.4L436.7,99.5z"/>
	<path class="st6" d="M438.9,82.2V79h2.6v3.2H438.9z M438.9,100.2V85h2.6v15.2H438.9z"/>
	<path class="st6" d="M452.2,100.5c-1.1,0-2.2-0.2-3.1-0.6c-0.9-0.4-1.7-1-2.4-1.7s-1.2-1.6-1.6-2.5c-0.4-1-0.6-2-0.6-3
		c0-1.1,0.2-2.1,0.6-3c0.4-1,0.9-1.8,1.6-2.5c0.7-0.7,1.5-1.3,2.4-1.7c0.9-0.4,2-0.6,3.1-0.6s2.2,0.2,3.1,0.6c1,0.4,1.8,1,2.4,1.7
		s1.2,1.6,1.6,2.5c0.4,1,0.6,2,0.6,3c0,1-0.2,2-0.6,3c-0.4,1-0.9,1.8-1.6,2.5c-0.7,0.7-1.5,1.3-2.4,1.7
		C454.4,100.3,453.4,100.5,452.2,100.5z M447.2,92.7c0,0.8,0.1,1.5,0.4,2.2c0.3,0.7,0.6,1.3,1.1,1.8c0.5,0.5,1,0.9,1.6,1.2
		c0.6,0.3,1.3,0.4,2,0.4c0.7,0,1.4-0.1,2-0.4c0.6-0.3,1.1-0.7,1.6-1.2c0.5-0.5,0.8-1.1,1.1-1.8c0.3-0.7,0.4-1.4,0.4-2.2
		c0-0.8-0.1-1.5-0.4-2.2c-0.3-0.7-0.6-1.3-1.1-1.8c-0.5-0.5-1-0.9-1.6-1.2c-0.6-0.3-1.3-0.4-2-0.4c-0.7,0-1.4,0.2-2,0.5
		c-0.6,0.3-1.1,0.7-1.6,1.2c-0.5,0.5-0.8,1.1-1.1,1.8C447.3,91.2,447.2,91.9,447.2,92.7z"/>
	<path class="st6" d="M476.1,100.2h-2.6v-8.5c0-1.6-0.2-2.8-0.7-3.6c-0.5-0.7-1.2-1.1-2.3-1.1c-0.5,0-1,0.1-1.6,0.3
		c-0.5,0.2-1,0.5-1.5,0.8c-0.5,0.3-0.9,0.8-1.2,1.3c-0.3,0.5-0.6,1-0.8,1.6v9.2h-2.6V85h2.3v3.3c0.6-1.1,1.5-1.9,2.6-2.6
		c1.1-0.6,2.4-1,3.7-1c0.9,0,1.6,0.2,2.2,0.5s1,0.8,1.4,1.3c0.3,0.6,0.6,1.2,0.7,2c0.1,0.8,0.2,1.6,0.2,2.5V100.2z"/>
	<path class="st6" d="M485.4,100.5c-1.2,0-2.4-0.2-3.6-0.6c-1.2-0.4-2.2-0.9-3.1-1.6l1.1-1.7c0.9,0.7,1.8,1.2,2.7,1.5
		c0.9,0.3,1.8,0.5,2.8,0.5c1.1,0,2-0.2,2.6-0.7c0.7-0.4,1-1.1,1-1.8c0-0.4-0.1-0.7-0.3-0.9c-0.2-0.3-0.4-0.5-0.8-0.7
		c-0.3-0.2-0.8-0.4-1.3-0.5c-0.5-0.2-1.2-0.3-1.9-0.5c-0.9-0.2-1.7-0.5-2.4-0.7c-0.7-0.2-1.2-0.5-1.6-0.8c-0.4-0.3-0.7-0.6-0.9-1
		c-0.2-0.4-0.3-0.9-0.3-1.5c0-0.8,0.1-1.4,0.5-2c0.3-0.6,0.7-1.1,1.2-1.5c0.5-0.4,1.1-0.7,1.8-0.9c0.7-0.2,1.5-0.3,2.3-0.3
		c1.1,0,2.2,0.2,3.2,0.6s1.8,0.9,2.5,1.5l-1.2,1.5c-0.6-0.6-1.4-1-2.2-1.3c-0.8-0.3-1.6-0.4-2.4-0.4c-0.9,0-1.7,0.2-2.4,0.6
		c-0.7,0.4-1,1-1,1.9c0,0.3,0.1,0.6,0.2,0.9c0.1,0.2,0.3,0.4,0.6,0.6c0.3,0.2,0.7,0.3,1.1,0.5s1,0.3,1.6,0.4c1,0.2,1.9,0.5,2.6,0.7
		c0.7,0.2,1.4,0.5,1.9,0.9c0.5,0.3,0.9,0.7,1.1,1.2c0.2,0.4,0.4,1,0.4,1.6c0,1.4-0.5,2.5-1.6,3.4
		C488.7,100.1,487.2,100.5,485.4,100.5z"/>
</g>
<line class="st7" x1="346.4" y1="8.8" x2="346.4" y2="100.7"/>
</svg>
